<svg xmlns="http://www.w3.org/2000/svg" xmlns:xlink="http://www.w3.org/1999/xlink" width="600" height="400" viewBox="0 0 2400 1600">
<defs>
  <clipPath id="clip420">
    <rect x="0" y="0" width="2400" height="1600"></rect>
  </clipPath>
</defs>
<path clip-path="url(#clip420)" d="M0 1600 L2400 1600 L2400 0 L0 0  Z" fill="#ffffff" fill-rule="evenodd" fill-opacity="1"></path>
<defs>
  <clipPath id="clip421">
    <rect x="178" y="47" width="2175" height="1440"></rect>
  </clipPath>
</defs>
<path clip-path="url(#clip420)" d="M178.867 1486.45 L2352.76 1486.45 L2352.76 47.2441 L178.867 47.2441  Z" fill="#ffffff" fill-rule="evenodd" fill-opacity="1"></path>
<polyline clip-path="url(#clip421)" style="stroke:#000000; stroke-linecap:round; stroke-linejoin:round; stroke-width:8; stroke-opacity:1; fill:none" points="178.867,178.081 2352.76,178.081 "></polyline>
<polyline clip-path="url(#clip421)" style="stroke:#000000; stroke-linecap:round; stroke-linejoin:round; stroke-width:8; stroke-opacity:1; fill:none" points="2316.76,160.081 2352.76,178.081 2316.76,196.081 "></polyline>
<polyline clip-path="url(#clip421)" style="stroke:#000000; stroke-linecap:round; stroke-linejoin:round; stroke-width:8; stroke-opacity:1; fill:none" points="2352.76,178.081 178.867,178.081 "></polyline>
<polyline clip-path="url(#clip421)" style="stroke:#000000; stroke-linecap:round; stroke-linejoin:round; stroke-width:8; stroke-opacity:1; fill:none" points="376.493,1486.45 376.493,47.2441 "></polyline>
<polyline clip-path="url(#clip421)" style="stroke:#000000; stroke-linecap:round; stroke-linejoin:round; stroke-width:8; stroke-opacity:1; fill:none" points="358.493,83.2441 376.493,47.2441 394.493,83.2441 "></polyline>
<polyline clip-path="url(#clip421)" style="stroke:#000000; stroke-linecap:round; stroke-linejoin:round; stroke-width:8; stroke-opacity:1; fill:none" points="376.493,47.2441 376.493,1486.45 "></polyline>
<polyline clip-path="url(#clip421)" style="stroke:#008000; stroke-linecap:round; stroke-linejoin:round; stroke-width:8; stroke-opacity:1; fill:none" points="376.493,178.081 771.746,832.264 "></polyline>
<polyline clip-path="url(#clip421)" style="stroke:#008000; stroke-linecap:round; stroke-linejoin:round; stroke-width:8; stroke-opacity:1; fill:none" points="768.535,792.143 771.746,832.264 737.722,810.76 "></polyline>
<polyline clip-path="url(#clip421)" style="stroke:#008000; stroke-linecap:round; stroke-linejoin:round; stroke-width:8; stroke-opacity:1; fill:none" points="771.746,832.264 376.493,178.081 "></polyline>
<polyline clip-path="url(#clip421)" style="stroke:#008000; stroke-linecap:round; stroke-linejoin:round; stroke-width:8; stroke-opacity:1; fill:none" points="771.746,832.264 1562.25,1159.36 "></polyline>
<polyline clip-path="url(#clip421)" style="stroke:#008000; stroke-linecap:round; stroke-linejoin:round; stroke-width:8; stroke-opacity:1; fill:none" points="1535.87,1128.96 1562.25,1159.36 1522.1,1162.22 "></polyline>
<polyline clip-path="url(#clip421)" style="stroke:#008000; stroke-linecap:round; stroke-linejoin:round; stroke-width:8; stroke-opacity:1; fill:none" points="1562.25,1159.36 771.746,832.264 "></polyline>
<circle clip-path="url(#clip421)" cx="771.746" cy="832.264" r="72" fill="#add8e6" fill-rule="evenodd" fill-opacity="1" stroke="#000000" stroke-opacity="1" stroke-width="3.2"></circle>
<path clip-path="url(#clip420)" d="M787.908 826.524 Q787.908 826.852 787.539 828.123 Q787.17 829.393 786.268 831.361 Q785.407 833.328 784.178 835.132 Q782.989 836.894 781.022 838.206 Q779.095 839.477 776.882 839.477 Q773.93 839.477 771.963 837.509 Q769.995 835.542 769.995 832.591 Q769.995 830.992 771.102 827.959 Q776.308 814.104 776.308 809.145 Q776.308 803.283 771.758 803.283 Q769.176 803.283 766.839 804.349 Q764.503 805.415 762.986 806.89 Q761.47 808.366 760.281 810.046 Q759.092 811.727 758.559 812.834 Q758.068 813.94 757.945 814.432 L752.903 834.681 Q752.493 836.403 752.206 837.222 Q751.919 838.042 751.14 838.739 Q750.362 839.477 749.132 839.477 Q748.107 839.477 747.369 838.862 Q746.673 838.247 746.673 837.181 Q746.673 837.017 746.877 836.157 Q747.082 835.296 747.369 834.107 Q747.656 832.918 747.779 832.222 Q749.255 826.647 749.46 825.868 L751.796 816.113 Q753.067 811.276 753.067 809.145 Q753.067 803.283 748.517 803.283 Q746.263 803.283 744.131 804.144 Q742.041 804.964 740.606 806.112 Q739.171 807.259 737.86 808.858 Q736.589 810.415 735.933 811.481 Q735.318 812.506 734.827 813.531 L733.761 817.711 Q733.515 818.859 732.326 823.327 L730.482 830.91 Q729.17 836.567 728.883 837.099 Q728.473 838.247 727.572 838.862 Q726.67 839.477 725.768 839.477 Q724.743 839.477 724.046 838.862 Q723.35 838.247 723.35 837.181 Q723.35 837.017 723.473 836.403 Q723.596 835.788 723.8 834.927 Q724.005 834.066 724.087 833.574 L728.965 814.186 Q729.867 810.661 730.072 809.555 Q730.318 808.407 730.318 807.136 Q730.318 803.283 727.694 803.283 Q725.563 803.283 724.169 805.825 Q722.776 808.366 721.587 813.285 Q721.218 814.637 720.972 814.924 Q720.767 815.211 720.152 815.211 Q719.128 815.17 719.128 814.35 Q719.128 814.145 719.456 812.834 Q719.784 811.522 720.398 809.555 Q721.054 807.546 721.751 806.234 Q722.161 805.374 722.53 804.8 Q722.899 804.226 723.637 803.324 Q724.374 802.422 725.481 801.931 Q726.588 801.439 727.94 801.439 Q730.933 801.439 733.146 803.365 Q735.4 805.292 735.687 808.735 Q741.139 801.439 748.763 801.439 Q753.067 801.439 755.649 803.611 Q758.068 805.702 758.354 809.555 Q764.011 801.439 772.045 801.439 Q776.677 801.439 779.177 803.857 Q781.677 806.234 781.677 810.415 Q781.677 812.588 780.571 816.728 Q779.464 820.827 778.726 822.876 Q777.988 824.926 776.554 828.861 Q775.037 832.632 775.037 834.845 Q775.037 836.28 775.529 836.935 Q776.021 837.591 777.087 837.591 Q778.726 837.591 780.161 836.649 Q781.595 835.665 782.62 834.066 Q783.686 832.427 784.383 830.787 Q785.079 829.106 785.612 827.221 Q785.94 826.196 786.104 825.95 Q786.309 825.704 786.883 825.704 Q787.908 825.704 787.908 826.524 Z" fill="#000000" fill-rule="nonzero" fill-opacity="1"></path><path clip-path="url(#clip420)" d="M796.197 829.187 L796.197 827.351 Q803.255 827.351 806.899 823.592 Q807.904 823.592 808.076 823.822 Q808.248 824.052 808.248 825.113 L808.248 858.081 Q808.248 859.831 809.109 860.376 Q809.969 860.921 813.728 860.921 L815.593 860.921 L815.593 862.729 Q813.527 862.557 806.067 862.557 Q798.607 862.557 796.57 862.729 L796.57 860.921 L798.435 860.921 Q802.136 860.921 803.026 860.405 Q803.915 859.86 803.915 858.081 L803.915 827.638 Q800.845 829.187 796.197 829.187 Z" fill="#000000" fill-rule="nonzero" fill-opacity="1"></path><circle clip-path="url(#clip421)" cx="1562.25" cy="1159.36" r="72" fill="#add8e6" fill-rule="evenodd" fill-opacity="1" stroke="#000000" stroke-opacity="1" stroke-width="3.2"></circle>
<path clip-path="url(#clip420)" d="M1576.39 1153.62 Q1576.39 1153.94 1576.03 1155.21 Q1575.66 1156.49 1574.76 1158.45 Q1573.89 1160.42 1572.66 1162.22 Q1571.48 1163.99 1569.51 1165.3 Q1567.58 1166.57 1565.37 1166.57 Q1562.42 1166.57 1560.45 1164.6 Q1558.48 1162.63 1558.48 1159.68 Q1558.48 1158.08 1559.59 1155.05 Q1564.79 1141.2 1564.79 1136.24 Q1564.79 1130.38 1560.25 1130.38 Q1557.66 1130.38 1555.33 1131.44 Q1552.99 1132.51 1551.47 1133.98 Q1549.96 1135.46 1548.77 1137.14 Q1547.58 1138.82 1547.05 1139.93 Q1546.55 1141.03 1546.43 1141.52 L1541.39 1161.77 Q1540.98 1163.49 1540.69 1164.31 Q1540.41 1165.13 1539.63 1165.83 Q1538.85 1166.57 1537.62 1166.57 Q1536.59 1166.57 1535.86 1165.95 Q1535.16 1165.34 1535.16 1164.27 Q1535.16 1164.11 1535.36 1163.25 Q1535.57 1162.39 1535.86 1161.2 Q1536.14 1160.01 1536.27 1159.31 Q1537.74 1153.74 1537.95 1152.96 L1540.28 1143.2 Q1541.55 1138.37 1541.55 1136.24 Q1541.55 1130.38 1537 1130.38 Q1534.75 1130.38 1532.62 1131.24 Q1530.53 1132.06 1529.09 1133.2 Q1527.66 1134.35 1526.35 1135.95 Q1525.08 1137.51 1524.42 1138.57 Q1523.81 1139.6 1523.31 1140.62 L1522.25 1144.8 Q1522 1145.95 1520.81 1150.42 L1518.97 1158 Q1517.66 1163.66 1517.37 1164.19 Q1516.96 1165.34 1516.06 1165.95 Q1515.16 1166.57 1514.26 1166.57 Q1513.23 1166.57 1512.53 1165.95 Q1511.84 1165.34 1511.84 1164.27 Q1511.84 1164.11 1511.96 1163.49 Q1512.08 1162.88 1512.29 1162.02 Q1512.49 1161.16 1512.57 1160.67 L1517.45 1141.28 Q1518.35 1137.75 1518.56 1136.65 Q1518.81 1135.5 1518.81 1134.23 Q1518.81 1130.38 1516.18 1130.38 Q1514.05 1130.38 1512.66 1132.92 Q1511.26 1135.46 1510.07 1140.38 Q1509.71 1141.73 1509.46 1142.02 Q1509.25 1142.3 1508.64 1142.3 Q1507.61 1142.26 1507.61 1141.44 Q1507.61 1141.24 1507.94 1139.93 Q1508.27 1138.61 1508.89 1136.65 Q1509.54 1134.64 1510.24 1133.33 Q1510.65 1132.47 1511.02 1131.89 Q1511.39 1131.32 1512.12 1130.42 Q1512.86 1129.51 1513.97 1129.02 Q1515.07 1128.53 1516.43 1128.53 Q1519.42 1128.53 1521.63 1130.46 Q1523.89 1132.38 1524.17 1135.83 Q1529.63 1128.53 1537.25 1128.53 Q1541.55 1128.53 1544.14 1130.7 Q1546.55 1132.79 1546.84 1136.65 Q1552.5 1128.53 1560.53 1128.53 Q1565.16 1128.53 1567.66 1130.95 Q1570.16 1133.33 1570.16 1137.51 Q1570.16 1139.68 1569.06 1143.82 Q1567.95 1147.92 1567.21 1149.97 Q1566.48 1152.02 1565.04 1155.95 Q1563.52 1159.72 1563.52 1161.94 Q1563.52 1163.37 1564.02 1164.03 Q1564.51 1164.68 1565.57 1164.68 Q1567.21 1164.68 1568.65 1163.74 Q1570.08 1162.76 1571.11 1161.16 Q1572.17 1159.52 1572.87 1157.88 Q1573.57 1156.2 1574.1 1154.31 Q1574.43 1153.29 1574.59 1153.04 Q1574.8 1152.8 1575.37 1152.8 Q1576.39 1152.8 1576.39 1153.62 Z" fill="#000000" fill-rule="nonzero" fill-opacity="1"></path><path clip-path="url(#clip420)" d="M1584.68 1189.82 Q1584.68 1188.76 1584.77 1188.44 Q1584.89 1188.13 1585.34 1187.64 L1596.62 1175.07 Q1602.79 1168.13 1602.79 1162.08 Q1602.79 1158.14 1600.72 1155.33 Q1598.69 1152.52 1594.93 1152.52 Q1592.35 1152.52 1590.16 1154.1 Q1587.98 1155.68 1586.98 1158.49 Q1587.15 1158.43 1587.75 1158.43 Q1589.22 1158.43 1590.02 1159.35 Q1590.85 1160.27 1590.85 1161.5 Q1590.85 1163.08 1589.82 1163.85 Q1588.82 1164.6 1587.81 1164.6 Q1587.41 1164.6 1586.86 1164.51 Q1586.35 1164.43 1585.52 1163.62 Q1584.68 1162.79 1584.68 1161.33 Q1584.68 1157.23 1587.78 1153.96 Q1590.91 1150.68 1595.67 1150.68 Q1601.07 1150.68 1604.6 1153.9 Q1608.15 1157.08 1608.15 1162.08 Q1608.15 1163.83 1607.61 1165.43 Q1607.09 1167.01 1606.38 1168.24 Q1605.69 1169.48 1603.79 1171.46 Q1601.9 1173.44 1600.38 1174.84 Q1598.86 1176.25 1595.44 1179.23 L1589.22 1185.29 L1599.81 1185.29 Q1604.97 1185.29 1605.37 1184.83 Q1605.95 1184 1606.66 1179.61 L1608.15 1179.61 L1606.49 1189.82 L1584.68 1189.82 Z" fill="#000000" fill-rule="nonzero" fill-opacity="1"></path><polyline clip-path="url(#clip421)" style="stroke:#000000; stroke-linecap:round; stroke-linejoin:round; stroke-width:8; stroke-opacity:1; fill:none" points="376.493,178.081 771.746,832.264 "></polyline>
<polyline clip-path="url(#clip421)" style="stroke:#000000; stroke-linecap:round; stroke-linejoin:round; stroke-width:8; stroke-opacity:1; fill:none" points="768.535,792.143 771.746,832.264 737.722,810.76 "></polyline>
<polyline clip-path="url(#clip421)" style="stroke:#000000; stroke-linecap:round; stroke-linejoin:round; stroke-width:8; stroke-opacity:1; fill:none" points="771.746,832.264 376.493,178.081 "></polyline>
<polyline clip-path="url(#clip421)" style="stroke:#000000; stroke-linecap:round; stroke-linejoin:round; stroke-width:8; stroke-opacity:1; fill:none" points="376.493,178.081 1562.25,1159.36 "></polyline>
<polyline clip-path="url(#clip421)" style="stroke:#000000; stroke-linecap:round; stroke-linejoin:round; stroke-width:8; stroke-opacity:1; fill:none" points="1545.99,1122.54 1562.25,1159.36 1523.04,1150.27 "></polyline>
<polyline clip-path="url(#clip421)" style="stroke:#000000; stroke-linecap:round; stroke-linejoin:round; stroke-width:8; stroke-opacity:1; fill:none" points="1562.25,1159.36 376.493,178.081 "></polyline>
<polyline clip-path="url(#clip421)" style="stroke:#ff0000; stroke-linecap:round; stroke-linejoin:round; stroke-width:4; stroke-opacity:1; fill:none" stroke-dasharray="2, 4" points="771.746,832.264 771.746,1486.45 "></polyline>
<path clip-path="url(#clip420)" d="M2365.64 233.744 Q2365.64 235.384 2364.62 236.321 Q2363.59 237.228 2362.42 237.228 Q2361.31 237.228 2360.72 236.584 Q2360.14 235.94 2360.14 235.12 Q2360.14 234.008 2360.96 233.041 Q2361.78 232.075 2363.01 231.87 Q2361.8 231.109 2360.02 231.109 Q2358.85 231.109 2357.82 231.724 Q2356.83 232.339 2356.21 233.129 Q2355.63 233.92 2355.1 235.062 Q2354.6 236.174 2354.4 236.848 Q2354.22 237.492 2354.08 238.194 L2352.03 246.392 Q2351.03 250.286 2351.03 251.662 Q2351.03 253.36 2351.85 254.502 Q2352.67 255.615 2354.31 255.615 Q2354.95 255.615 2355.69 255.439 Q2356.42 255.234 2357.35 254.707 Q2358.32 254.151 2359.17 253.331 Q2360.05 252.482 2360.9 251.047 Q2361.75 249.613 2362.3 247.768 Q2362.48 247.124 2363.06 247.124 Q2363.8 247.124 2363.8 247.71 Q2363.8 248.207 2363.39 249.261 Q2363.01 250.286 2362.16 251.633 Q2361.34 252.951 2360.25 254.151 Q2359.17 255.322 2357.56 256.142 Q2355.95 256.962 2354.19 256.962 Q2351.67 256.962 2350.01 255.615 Q2348.34 254.268 2347.72 252.394 Q2347.58 252.658 2347.37 253.009 Q2347.17 253.36 2346.55 254.151 Q2345.97 254.912 2345.29 255.498 Q2344.62 256.054 2343.56 256.493 Q2342.54 256.962 2341.43 256.962 Q2340.02 256.962 2338.76 256.552 Q2337.53 256.142 2336.66 255.205 Q2335.78 254.268 2335.78 252.98 Q2335.78 251.545 2336.74 250.55 Q2337.74 249.525 2339.09 249.525 Q2339.93 249.525 2340.61 250.023 Q2341.31 250.52 2341.31 251.604 Q2341.31 252.804 2340.49 253.712 Q2339.67 254.619 2338.5 254.854 Q2339.7 255.615 2341.49 255.615 Q2343.42 255.615 2344.94 253.917 Q2346.46 252.219 2347.2 249.379 Q2349.01 242.557 2349.71 239.512 Q2350.42 236.438 2350.42 235.12 Q2350.42 233.891 2350.09 233.041 Q2349.77 232.192 2349.22 231.812 Q2348.69 231.402 2348.19 231.255 Q2347.72 231.109 2347.2 231.109 Q2346.32 231.109 2345.32 231.46 Q2344.36 231.812 2343.18 232.632 Q2342.04 233.422 2340.96 235.062 Q2339.88 236.701 2339.14 238.956 Q2339 239.629 2338.35 239.629 Q2337.65 239.6 2337.65 239.014 Q2337.65 238.516 2338.03 237.492 Q2338.44 236.438 2339.26 235.12 Q2340.11 233.803 2341.19 232.632 Q2342.31 231.431 2343.92 230.611 Q2345.56 229.792 2347.31 229.792 Q2348.1 229.792 2348.86 229.967 Q2349.65 230.114 2350.59 230.553 Q2351.56 230.992 2352.41 231.958 Q2353.26 232.924 2353.78 234.33 Q2354.13 233.656 2354.6 233.012 Q2355.1 232.368 2355.86 231.578 Q2356.65 230.758 2357.74 230.289 Q2358.85 229.792 2360.08 229.792 Q2361.28 229.792 2362.45 230.114 Q2363.62 230.406 2364.62 231.373 Q2365.64 232.309 2365.64 233.744 Z" fill="#000000" fill-rule="nonzero" fill-opacity="1"></path><path clip-path="url(#clip420)" d="M488.431 30.0624 Q488.431 30.4723 488.167 31.4385 L482.429 54.3339 Q481.17 59.4283 477.071 63.0002 Q473.001 66.5721 468.375 66.5721 Q465.594 66.5721 463.808 65.0789 Q462.022 63.615 462.022 61.3606 Q462.022 59.3697 463.076 58.4036 Q464.13 57.4667 465.389 57.4667 Q465.799 57.4667 466.238 57.5838 Q466.677 57.7009 467.146 58.1986 Q467.614 58.6963 467.614 59.5454 Q467.614 60.9215 466.414 62.0048 Q465.828 62.5025 465.272 62.6196 Q464.745 62.7367 463.837 62.7367 Q464.188 63.5565 464.833 64.1128 Q465.477 64.6691 466.209 64.874 Q466.941 65.1082 467.409 65.1668 Q467.907 65.2546 468.375 65.2546 Q472.123 65.2546 474.992 61.4777 Q475.841 60.3359 476.456 59.1941 Q477.1 58.0815 477.569 56.7054 Q478.037 55.3586 478.242 54.6267 Q478.476 53.8947 478.886 52.2259 Q476.163 54.9487 472.825 54.9487 Q471.42 54.9487 470.161 54.5681 Q468.931 54.1875 467.848 53.397 Q466.765 52.5772 466.121 51.1426 Q465.506 49.708 465.506 47.8049 Q465.506 45.7847 466.296 43.0326 Q467.087 40.2804 468.99 35.2153 Q470.015 32.3754 470.015 30.9993 Q470.015 30.3259 469.868 29.916 Q469.722 29.4768 469.429 29.3304 Q469.136 29.1548 468.961 29.1255 Q468.814 29.0962 468.522 29.0962 Q466.794 29.0962 465.184 30.8529 Q463.574 32.6096 462.461 36.5328 Q462.227 37.2648 462.08 37.4405 Q461.934 37.6161 461.495 37.6161 Q460.763 37.5869 460.763 37.0013 Q460.763 36.7671 461.026 35.8594 Q461.29 34.9225 461.905 33.5465 Q462.549 32.1411 463.427 30.8822 Q464.306 29.5939 465.682 28.6863 Q467.087 27.7787 468.697 27.7787 Q470.893 27.7787 472.24 29.2133 Q473.616 30.6187 473.616 32.6974 Q473.616 33.5465 473.382 34.3077 Q473.177 35.0397 472.416 37.0013 Q469.341 44.9064 469.341 48.7711 Q469.341 49.708 469.488 50.4985 Q469.663 51.2597 470.044 52.0209 Q470.425 52.7529 471.186 53.1921 Q471.976 53.6019 473.06 53.6019 Q474.436 53.6019 475.724 52.9578 Q477.042 52.2844 477.861 51.3768 Q478.71 50.4692 479.208 49.708 Q479.735 48.9175 479.852 48.5076 L482.546 37.7332 L483.746 32.9316 Q484.302 30.3259 484.566 29.6818 Q484.917 29.0669 485.532 28.7449 Q486.147 28.4228 486.674 28.4228 Q487.406 28.4228 487.904 28.862 Q488.431 29.3012 488.431 30.0624 Z" fill="#000000" fill-rule="nonzero" fill-opacity="1"></path><path clip-path="url(#clip420)" d="M517.927 508.879 L509.29 543.544 Q508.939 544.921 508.939 546.414 Q508.939 549.166 510.754 549.166 Q511.603 549.166 512.306 548.61 Q513.008 548.024 513.535 546.882 Q514.092 545.711 514.443 544.598 Q514.824 543.486 515.292 541.759 Q515.438 541.085 515.585 540.88 Q515.731 540.675 516.141 540.675 Q516.873 540.675 516.873 541.261 Q516.141 544.862 515.058 547.146 Q513.477 550.513 510.549 550.513 Q508.353 550.513 506.714 548.99 Q505.103 547.438 505.103 544.979 Q505.103 544.042 505.396 542.93 L512.95 512.949 L513.155 511.778 Q513.155 511.456 513.038 511.28 Q512.921 511.104 512.218 510.929 Q511.544 510.753 510.198 510.753 Q509.641 510.753 509.378 510.724 Q509.144 510.694 508.909 510.548 Q508.704 510.402 508.704 510.08 Q508.704 509.553 508.909 509.26 Q509.144 508.967 509.319 508.909 Q509.495 508.85 509.846 508.821 Q510.344 508.791 512.013 508.645 Q513.682 508.469 515.116 508.352 Q516.551 508.235 517.166 508.235 Q517.517 508.235 517.693 508.411 Q517.898 508.557 517.927 508.733 L517.927 508.879 Z" fill="#ff0000" fill-rule="nonzero" fill-opacity="1"></path><path clip-path="url(#clip420)" d="M524.206 543.169 L524.206 541.857 Q529.248 541.857 531.851 539.173 Q532.568 539.173 532.691 539.337 Q532.814 539.501 532.814 540.259 L532.814 563.807 Q532.814 565.057 533.429 565.447 Q534.044 565.836 536.729 565.836 L538.061 565.836 L538.061 567.127 Q536.585 567.004 531.257 567.004 Q525.928 567.004 524.473 567.127 L524.473 565.836 L525.805 565.836 Q528.449 565.836 529.084 565.467 Q529.719 565.078 529.719 563.807 L529.719 542.062 Q527.527 543.169 524.206 543.169 Z" fill="#ff0000" fill-rule="nonzero" fill-opacity="1"></path><path clip-path="url(#clip420)" d="M1109.36 999.517 L1100.73 1034.18 Q1100.37 1035.56 1100.37 1037.05 Q1100.37 1039.8 1102.19 1039.8 Q1103.04 1039.8 1103.74 1039.25 Q1104.44 1038.66 1104.97 1037.52 Q1105.53 1036.35 1105.88 1035.24 Q1106.26 1034.12 1106.73 1032.4 Q1106.87 1031.72 1107.02 1031.52 Q1107.17 1031.31 1107.58 1031.31 Q1108.31 1031.31 1108.31 1031.9 Q1107.58 1035.5 1106.49 1037.78 Q1104.91 1041.15 1101.98 1041.15 Q1099.79 1041.15 1098.15 1039.63 Q1096.54 1038.08 1096.54 1035.62 Q1096.54 1034.68 1096.83 1033.57 L1104.38 1003.59 L1104.59 1002.42 Q1104.59 1002.09 1104.47 1001.92 Q1104.36 1001.74 1103.65 1001.57 Q1102.98 1001.39 1101.63 1001.39 Q1101.08 1001.39 1100.81 1001.36 Q1100.58 1001.33 1100.34 1001.19 Q1100.14 1001.04 1100.14 1000.72 Q1100.14 1000.19 1100.34 999.898 Q1100.58 999.605 1100.75 999.546 Q1100.93 999.488 1101.28 999.458 Q1101.78 999.429 1103.45 999.283 Q1105.12 999.107 1106.55 998.99 Q1107.99 998.873 1108.6 998.873 Q1108.95 998.873 1109.13 999.048 Q1109.33 999.195 1109.36 999.371 L1109.36 999.517 Z" fill="#ff0000" fill-rule="nonzero" fill-opacity="1"></path><path clip-path="url(#clip420)" d="M1115.64 1057.77 Q1115.64 1057.01 1115.7 1056.78 Q1115.79 1056.56 1116.11 1056.21 L1124.17 1047.23 Q1128.57 1042.27 1128.57 1037.95 Q1128.57 1035.14 1127.1 1033.13 Q1125.64 1031.12 1122.96 1031.12 Q1121.11 1031.12 1119.56 1032.25 Q1118 1033.38 1117.28 1035.38 Q1117.4 1035.34 1117.83 1035.34 Q1118.88 1035.34 1119.45 1036 Q1120.05 1036.66 1120.05 1037.54 Q1120.05 1038.66 1119.31 1039.22 Q1118.59 1039.75 1117.88 1039.75 Q1117.59 1039.75 1117.2 1039.69 Q1116.83 1039.63 1116.24 1039.05 Q1115.64 1038.46 1115.64 1037.41 Q1115.64 1034.48 1117.85 1032.15 Q1120.09 1029.81 1123.49 1029.81 Q1127.34 1029.81 1129.86 1032.11 Q1132.41 1034.38 1132.41 1037.95 Q1132.41 1039.2 1132.02 1040.34 Q1131.65 1041.47 1131.14 1042.35 Q1130.64 1043.23 1129.29 1044.65 Q1127.94 1046.06 1126.85 1047.07 Q1125.77 1048.07 1123.33 1050.2 L1118.88 1054.53 L1126.44 1054.53 Q1130.13 1054.53 1130.42 1054.2 Q1130.83 1053.6 1131.34 1050.47 L1132.41 1050.47 L1131.22 1057.77 L1115.64 1057.77 Z" fill="#ff0000" fill-rule="nonzero" fill-opacity="1"></path><path clip-path="url(#clip420)" d="M660.293 446.844 Q660.662 446.987 660.662 447.397 Q660.662 447.807 660.293 447.951 Q657.219 448.975 654.534 452.316 Q652.628 454.796 652.095 457.644 Q652.034 457.931 651.808 458.116 Q651.583 458.3 651.276 458.3 Q650.927 458.3 650.681 458.054 Q650.435 457.829 650.435 457.481 Q650.435 457.46 650.456 457.399 Q650.476 457.317 650.476 457.296 Q651.091 453.976 653.243 451.25 Q654.596 449.529 656.522 448.237 L624.366 448.237 Q624.018 448.237 623.772 447.992 Q623.526 447.746 623.526 447.397 Q623.526 447.049 623.772 446.803 Q624.018 446.557 624.366 446.557 L656.522 446.557 Q654.596 445.266 653.243 443.544 Q651.091 440.818 650.476 437.498 Q650.476 437.478 650.456 437.416 Q650.435 437.334 650.435 437.314 Q650.435 436.965 650.681 436.74 Q650.927 436.494 651.276 436.494 Q651.583 436.494 651.808 436.678 Q652.034 436.863 652.095 437.15 Q652.628 439.999 654.534 442.478 Q657.219 445.819 660.293 446.844 Z" fill="#000000" fill-rule="nonzero" fill-opacity="1"></path><path clip-path="url(#clip420)" d="M622.161 468.342 Q622.161 469.894 621.136 470.89 Q620.141 471.885 618.852 471.885 Q617.74 471.885 617.154 471.241 Q616.569 470.597 616.569 469.777 Q616.569 468.606 617.476 467.64 Q618.384 466.674 619.702 466.469 Q618.735 465.766 617.184 465.766 Q614.636 465.766 612.382 467.728 Q611.387 468.635 610.303 470.304 Q609.22 471.944 609.015 472.646 L607.112 480.464 Q606.936 481.342 605.853 485.558 Q604.799 489.745 604.711 489.92 Q604.418 490.74 603.774 491.179 Q603.13 491.619 602.486 491.619 Q601.754 491.619 601.256 491.179 Q600.759 490.74 600.759 489.979 Q600.759 489.862 600.846 489.423 Q600.934 488.983 601.081 488.369 Q601.227 487.754 601.286 487.402 L604.77 473.554 Q605.414 471.036 605.56 470.246 Q605.736 469.426 605.736 468.518 Q605.736 466.937 605.238 466.352 Q604.74 465.766 603.862 465.766 Q602.34 465.766 601.344 467.581 Q600.349 469.396 599.5 472.91 Q599.236 473.876 599.061 474.081 Q598.914 474.286 598.475 474.286 Q597.743 474.257 597.743 473.671 Q597.743 473.525 597.977 472.588 Q598.211 471.622 598.651 470.216 Q599.119 468.782 599.617 467.874 Q599.91 467.259 600.173 466.849 Q600.437 466.439 600.964 465.795 Q601.491 465.151 602.281 464.8 Q603.072 464.448 604.038 464.448 Q606.146 464.448 607.639 465.737 Q609.161 467.025 609.513 469.045 Q610.245 467.991 611.152 467.083 Q612.06 466.147 613.729 465.298 Q615.398 464.448 617.184 464.448 Q619.409 464.448 620.785 465.59 Q622.161 466.703 622.161 468.342 Z" fill="#000000" fill-rule="nonzero" fill-opacity="1"></path><path clip-path="url(#clip420)" d="M628.315 484.275 L628.315 482.963 Q633.357 482.963 635.959 480.279 Q636.677 480.279 636.8 480.443 Q636.923 480.606 636.923 481.365 L636.923 504.913 Q636.923 506.163 637.537 506.553 Q638.152 506.942 640.837 506.942 L642.169 506.942 L642.169 508.233 Q640.694 508.11 635.365 508.11 Q630.036 508.11 628.581 508.233 L628.581 506.942 L629.913 506.942 Q632.557 506.942 633.193 506.573 Q633.828 506.184 633.828 504.913 L633.828 483.168 Q631.635 484.275 628.315 484.275 Z" fill="#000000" fill-rule="nonzero" fill-opacity="1"></path><path clip-path="url(#clip420)" d="M1055.55 610.39 Q1055.91 610.533 1055.91 610.943 Q1055.91 611.353 1055.55 611.496 Q1052.47 612.521 1049.79 615.862 Q1047.88 618.342 1047.35 621.19 Q1047.29 621.477 1047.06 621.662 Q1046.84 621.846 1046.53 621.846 Q1046.18 621.846 1045.93 621.6 Q1045.69 621.375 1045.69 621.026 Q1045.69 621.006 1045.71 620.944 Q1045.73 620.862 1045.73 620.842 Q1046.34 617.522 1048.5 614.796 Q1049.85 613.074 1051.77 611.783 L1019.62 611.783 Q1019.27 611.783 1019.02 611.537 Q1018.78 611.291 1018.78 610.943 Q1018.78 610.595 1019.02 610.349 Q1019.27 610.103 1019.62 610.103 L1051.77 610.103 Q1049.85 608.812 1048.5 607.09 Q1046.34 604.364 1045.73 601.044 Q1045.73 601.024 1045.71 600.962 Q1045.69 600.88 1045.69 600.86 Q1045.69 600.511 1045.93 600.286 Q1046.18 600.04 1046.53 600.04 Q1046.84 600.04 1047.06 600.224 Q1047.29 600.409 1047.35 600.696 Q1047.88 603.544 1049.79 606.024 Q1052.47 609.365 1055.55 610.39 Z" fill="#000000" fill-rule="nonzero" fill-opacity="1"></path><path clip-path="url(#clip420)" d="M1016.41 631.888 Q1016.41 633.44 1015.39 634.436 Q1014.39 635.431 1013.11 635.431 Q1011.99 635.431 1011.41 634.787 Q1010.82 634.143 1010.82 633.323 Q1010.82 632.152 1011.73 631.186 Q1012.64 630.219 1013.95 630.015 Q1012.99 629.312 1011.44 629.312 Q1008.89 629.312 1006.63 631.273 Q1005.64 632.181 1004.56 633.85 Q1003.47 635.49 1003.27 636.192 L1001.36 644.009 Q1001.19 644.888 1000.11 649.104 Q999.052 653.291 998.964 653.466 Q998.671 654.286 998.027 654.725 Q997.383 655.164 996.739 655.164 Q996.007 655.164 995.509 654.725 Q995.011 654.286 995.011 653.525 Q995.011 653.408 995.099 652.969 Q995.187 652.529 995.333 651.915 Q995.48 651.3 995.538 650.948 L999.022 637.1 Q999.666 634.582 999.813 633.791 Q999.988 632.972 999.988 632.064 Q999.988 630.483 999.491 629.897 Q998.993 629.312 998.115 629.312 Q996.592 629.312 995.597 631.127 Q994.601 632.942 993.752 636.456 Q993.489 637.422 993.313 637.627 Q993.167 637.832 992.728 637.832 Q991.996 637.803 991.996 637.217 Q991.996 637.071 992.23 636.134 Q992.464 635.167 992.903 633.762 Q993.372 632.328 993.869 631.42 Q994.162 630.805 994.426 630.395 Q994.689 629.985 995.216 629.341 Q995.743 628.697 996.534 628.346 Q997.324 627.994 998.29 627.994 Q1000.4 627.994 1001.89 629.283 Q1003.41 630.571 1003.77 632.591 Q1004.5 631.537 1005.4 630.629 Q1006.31 629.692 1007.98 628.843 Q1009.65 627.994 1011.44 627.994 Q1013.66 627.994 1015.04 629.136 Q1016.41 630.249 1016.41 631.888 Z" fill="#000000" fill-rule="nonzero" fill-opacity="1"></path><path clip-path="url(#clip420)" d="M1022.57 671.779 Q1022.57 671.021 1022.63 670.795 Q1022.71 670.57 1023.04 670.222 L1031.09 661.245 Q1035.5 656.285 1035.5 651.961 Q1035.5 649.153 1034.02 647.145 Q1032.57 645.136 1029.88 645.136 Q1028.04 645.136 1026.48 646.263 Q1024.92 647.391 1024.21 649.399 Q1024.33 649.358 1024.76 649.358 Q1025.81 649.358 1026.38 650.014 Q1026.97 650.67 1026.97 651.551 Q1026.97 652.678 1026.24 653.231 Q1025.52 653.764 1024.8 653.764 Q1024.51 653.764 1024.13 653.703 Q1023.76 653.641 1023.16 653.068 Q1022.57 652.473 1022.57 651.428 Q1022.57 648.497 1024.78 646.161 Q1027.01 643.824 1030.42 643.824 Q1034.27 643.824 1036.79 646.12 Q1039.33 648.395 1039.33 651.961 Q1039.33 653.211 1038.94 654.359 Q1038.57 655.486 1038.06 656.367 Q1037.57 657.248 1036.22 658.663 Q1034.86 660.077 1033.78 661.081 Q1032.69 662.085 1030.25 664.217 L1025.81 668.541 L1033.37 668.541 Q1037.06 668.541 1037.34 668.213 Q1037.75 667.619 1038.27 664.483 L1039.33 664.483 L1038.14 671.779 L1022.57 671.779 Z" fill="#000000" fill-rule="nonzero" fill-opacity="1"></path><path clip-path="url(#clip420)" d="M441.462 374.923 Q441.462 380.826 439.565 387.466 Q437.703 394.071 434.752 399.411 Q431.8 404.717 427.936 408.23 Q424.071 411.708 420.382 411.708 Q418.028 411.708 416.271 410.408 Q414.55 409.073 413.601 406.86 Q412.653 404.611 412.196 402.152 Q411.739 399.657 411.739 396.952 Q411.739 392.912 412.617 388.52 Q413.496 384.093 414.971 380.088 Q416.447 376.048 418.52 372.394 Q420.593 368.705 422.877 366.034 Q425.195 363.329 427.795 361.748 Q430.395 360.167 432.819 360.167 Q434.576 360.167 435.981 360.94 Q437.422 361.678 438.335 362.978 Q439.249 364.243 439.881 365.753 Q440.549 367.264 440.865 369.021 Q441.181 370.742 441.322 372.183 Q441.462 373.588 441.462 374.923 M436.719 370.461 Q436.719 368.669 436.579 367.334 Q436.438 365.964 436.052 364.594 Q435.665 363.224 434.822 362.486 Q434.014 361.748 432.749 361.748 Q429.06 361.748 424.914 369.302 Q423.579 371.656 422.385 374.853 Q421.19 378.05 420.768 379.561 Q420.347 381.072 419.363 384.796 L434.4 384.796 Q436.719 375.204 436.719 370.461 M433.768 387.079 L418.801 387.079 Q416.482 395.863 416.482 401.344 Q416.482 406.122 417.466 408.125 Q418.485 410.092 420.382 410.092 Q422.56 410.092 424.598 407.914 Q426.636 405.7 428.709 401.695 Q431.449 396.495 433.768 387.079 Z" fill="#ffa500" fill-rule="nonzero" fill-opacity="1"></path><path clip-path="url(#clip420)" d="M448.857 402.884 L448.857 401.31 Q454.907 401.31 458.03 398.088 Q458.891 398.088 459.038 398.285 Q459.186 398.482 459.186 399.392 L459.186 427.65 Q459.186 429.15 459.924 429.617 Q460.662 430.084 463.883 430.084 L465.482 430.084 L465.482 431.634 Q463.711 431.486 457.317 431.486 Q450.923 431.486 449.176 431.634 L449.176 430.084 L450.775 430.084 Q453.948 430.084 454.71 429.642 Q455.472 429.174 455.472 427.65 L455.472 401.556 Q452.841 402.884 448.857 402.884 Z" fill="#ffa500" fill-rule="nonzero" fill-opacity="1"></path><path clip-path="url(#clip420)" d="M867.924 941.882 Q867.924 947.785 866.027 954.425 Q864.165 961.03 861.214 966.37 Q858.263 971.676 854.398 975.189 Q850.533 978.667 846.844 978.667 Q844.49 978.667 842.734 977.367 Q841.012 976.032 840.063 973.819 Q839.115 971.57 838.658 969.111 Q838.201 966.616 838.201 963.911 Q838.201 959.871 839.08 955.479 Q839.958 951.052 841.434 947.047 Q842.909 943.007 844.982 939.353 Q847.055 935.664 849.339 932.993 Q851.658 930.288 854.257 928.707 Q856.857 927.126 859.282 927.126 Q861.038 927.126 862.444 927.899 Q863.884 928.637 864.798 929.937 Q865.711 931.202 866.343 932.712 Q867.011 934.223 867.327 935.98 Q867.643 937.701 867.784 939.142 Q867.924 940.547 867.924 941.882 M863.181 937.42 Q863.181 935.629 863.041 934.293 Q862.9 932.923 862.514 931.553 Q862.127 930.183 861.284 929.445 Q860.476 928.707 859.211 928.707 Q855.522 928.707 851.376 936.261 Q850.041 938.615 848.847 941.812 Q847.652 945.009 847.231 946.52 Q846.809 948.031 845.825 951.755 L860.863 951.755 Q863.181 942.163 863.181 937.42 M860.23 954.039 L845.263 954.039 Q842.944 962.822 842.944 968.303 Q842.944 973.081 843.928 975.084 Q844.947 977.051 846.844 977.051 Q849.023 977.051 851.06 974.873 Q853.098 972.659 855.171 968.654 Q857.911 963.454 860.23 954.039 Z" fill="#ffa500" fill-rule="nonzero" fill-opacity="1"></path><path clip-path="url(#clip420)" d="M875.319 998.593 Q875.319 997.683 875.393 997.412 Q875.491 997.142 875.884 996.724 L885.55 985.952 Q890.837 980 890.837 974.811 Q890.837 971.442 889.067 969.031 Q887.32 966.621 884.099 966.621 Q881.885 966.621 880.016 967.974 Q878.147 969.327 877.286 971.737 Q877.434 971.688 877.95 971.688 Q879.205 971.688 879.893 972.475 Q880.606 973.262 880.606 974.319 Q880.606 975.672 879.721 976.336 Q878.86 976.975 878 976.975 Q877.655 976.975 877.188 976.901 Q876.745 976.828 876.032 976.139 Q875.319 975.426 875.319 974.172 Q875.319 970.655 877.975 967.851 Q880.656 965.047 884.738 965.047 Q889.362 965.047 892.387 967.802 Q895.436 970.532 895.436 974.811 Q895.436 976.311 894.969 977.688 Q894.526 979.041 893.912 980.099 Q893.321 981.156 891.698 982.853 Q890.075 984.55 888.772 985.755 Q887.468 986.96 884.541 989.518 L879.205 994.707 L888.28 994.707 Q892.706 994.707 893.051 994.314 Q893.543 993.6 894.158 989.838 L895.436 989.838 L894.01 998.593 L875.319 998.593 Z" fill="#ffa500" fill-rule="nonzero" fill-opacity="1"></path></svg>